# xmcd CD database file
#
# Track frame offsets:
#	150
#	17890
#	34945
#	46789
#	60620
#	75912
#	86065
#	100017
#	120227
#	136802
#	149862
#	164345
#	176900
#
# Disc length: 2487 seconds
#
# Revision: 2
# Processed by: cddbd v1.5.2PL0 Copyright (c) Steve Scherf et al.
# Submitted via: CDex 1.51
#
DISCID=a709b50d
DTITLE=Frank Sinatra - The Sinatra Christmas Album
DYEAR=1994
DGENRE=Christmas Music
TTITLE0=Have Yourself A Merry Little Christmas
TTITLE1=An Old Fashioned Christmas
TTITLE2=I Heard The Bells On Christmas Day
TTITLE3=The Little Drummer Boy
TTITLE4=Go Tell It On The Mountain (with Bing Crosby)
TTITLE5=We Wish You The Merriest (with Bing Crosby)
TTITLE6=Whatever Happened To Christmas
TTITLE7=The Twelve Days Of Christmas (with Tina, Nancy and Frank, Jr.)
TTITLE8=The Bells Of Christmas (Greensleeves)  (with Tina, Nancy and Frank, Jr.)
TTITLE9=I Wouldn't Trade Christmas (with Tina, Nancy and Frank, Jr.)
TTITLE10=The Christmas Waltz
TTITLE11=A Baby Just Like You
TTITLE12=Christmas Memories
EXTD=YEAR: 1994
EXTT0=
EXTT1=
EXTT2=
EXTT3=
EXTT4=
EXTT5=
EXTT6=
EXTT7=
EXTT8=
EXTT9=
EXTT10=
EXTT11=
EXTT12=
PLAYORDER=
